<svg width="560" height="481" viewBox="0 0 560 481" fill="none" xmlns="http://www.w3.org/2000/svg">
<path d="M246.31 166.14L182 283.64C171.27 303.24 175.29 328.43 191 339.9C206.69 351.36 228.12 344.76 238.85 325.15L303.17 207.66C313.9 188.05 309.88 162.86 294.17 151.39C278.46 139.93 257 146.53 246.31 166.14Z" fill="#16130C"/>
<path d="M312.1 166.14L376.41 283.64C387.15 303.24 383.12 328.43 367.41 339.9C351.71 351.36 330.28 344.76 319.55 325.15L255.26 207.66C244.52 188.05 248.55 162.86 264.26 151.39C279.94 139.93 301.36 146.53 312.1 166.14Z" fill="#16130C"/>
</svg>
