<svg width="560" height="540" viewBox="0 0 560 540" fill="none" xmlns="http://www.w3.org/2000/svg">
<path d="M246.31 236.14L182 353.64C171.27 373.24 175.29 398.43 191 409.9C206.69 421.36 228.12 414.76 238.85 395.15L303.17 277.66C313.9 258.05 309.88 232.86 294.17 221.39C278.46 209.93 257 216.53 246.31 236.14Z" fill="white"/>
<path d="M312.1 236.14L376.41 353.64C387.15 373.24 383.12 398.43 367.41 409.9C351.71 421.36 330.28 414.76 319.55 395.15L255.26 277.66C244.52 258.05 248.55 232.86 264.26 221.39C279.94 209.93 301.36 216.53 312.1 236.14Z" fill="white"/>
<path d="M290.92 131L266.31 131.42C257.156 131.572 248.428 135.317 242.01 141.845C235.591 148.374 231.996 157.164 232 166.32C231.999 170.952 232.921 175.538 234.711 179.81C236.501 184.081 239.124 187.954 242.427 191.202C245.729 194.45 249.646 197.007 253.947 198.725C258.248 200.444 262.849 201.288 267.48 201.21L292.1 200.8C301.253 200.645 309.98 196.9 316.397 190.372C322.815 183.843 326.411 175.055 326.41 165.9C326.411 161.267 325.489 156.68 323.698 152.407C321.907 148.133 319.284 144.26 315.98 141.011C312.677 137.762 308.76 135.204 304.457 133.485C300.154 131.767 295.553 130.922 290.92 131Z" fill="white"/>
</svg>
