<svg id="Layer_1" data-name="Layer 1" xmlns="http://www.w3.org/2000/svg" viewBox="0 0 557.28 561.6"><defs><style>.cls-1{fill:#321e17;}</style></defs><path class="cls-1" d="M277.76,545.9c-146.1,0-265-118.86-265-265s118.86-265,265-265,265,118.86,265,265S423.86,545.9,277.76,545.9Zm0-510.15c-135.2,0-245.19,110-245.19,245.19s110,245.19,245.19,245.19S523,416.14,523,280.94,413,35.75,277.76,35.75Z"/><path class="cls-1" d="M244.87,247.14l-64.32,117.5c-10.73,19.6-6.71,44.79,9,56.26h0c15.69,11.46,37.12,4.86,47.85-14.75l64.32-117.49c10.73-19.61,6.71-44.8-9-56.27h0C277,220.93,255.6,227.53,244.87,247.14Z"/><path class="cls-1" d="M310.66,247.14,375,364.64c10.74,19.6,6.71,44.79-9,56.26h0c-15.7,11.46-37.13,4.86-47.86-14.75L253.82,288.66c-10.74-19.61-6.71-44.8,9-56.27h0C278.5,220.93,299.92,227.53,310.66,247.14Z"/><path class="cls-1" d="M289.48,142l-24.61.42a34.89,34.89,0,0,0-34.31,34.89h0A34.89,34.89,0,0,0,266,212.21l24.62-.41A34.9,34.9,0,0,0,325,176.9h0A34.9,34.9,0,0,0,289.48,142Z"/></svg>