<svg id="Layer_1" data-name="Layer 1" xmlns="http://www.w3.org/2000/svg" viewBox="0 0 906.08 237.73"><defs><style>.cls-1{fill:#321e17;}</style></defs><path class="cls-1" d="M156,61.67a11.79,11.79,0,1,1,23.57,0v31c5.42-7,12.4-13.33,24.34-13.33,17.83,0,28.22,11.78,28.22,30.85v43a11.79,11.79,0,1,1-23.57,0v-35.5c0-11.17-5.27-16.91-14.26-16.91s-14.73,5.74-14.73,16.91v35.5a11.79,11.79,0,1,1-23.57,0Z"/><path class="cls-1" d="M249.47,187.11c-3.42-1.24-7.45-4-7.45-9.77a9.4,9.4,0,0,1,9.31-9.61,11.08,11.08,0,0,1,3.87.62,15.47,15.47,0,0,0,5,.93c4.18,0,6.2-.78,8.37-5l.77-1.86L240.94,96.71a17.16,17.16,0,0,1-1.24-5.42c0-6.67,5.11-11.32,11.63-11.32,5.89,0,9.3,3.25,11.32,8.83l18,48.38L298,89c1.86-5,5.27-9,11.32-9a11,11,0,0,1,11.16,10.85,17.92,17.92,0,0,1-1.08,5.58L290.4,166c-7,16.91-13.95,23.26-28.06,23.26A35.31,35.31,0,0,1,249.47,187.11Z"/><path class="cls-1" d="M365.92,165.87c-25,0-43.42-17.52-43.42-42.95v-.31c0-23.73,16.9-43.26,41.09-43.26,27.76,0,40,22.79,40,40,0,6.82-4.8,11.32-11,11.32H345.91c2.33,10.7,9.77,16.28,20.32,16.28A27.15,27.15,0,0,0,383,141.37a8.81,8.81,0,0,1,5.74-1.86,9,9,0,0,1,9.15,9.3,9.28,9.28,0,0,1-3.1,7C387.47,162,378,165.87,365.92,165.87Zm15.19-49.93c-1.39-10.54-7.6-17.68-17.52-17.68-9.77,0-16.12,7-18,17.68Z"/><path class="cls-1" d="M414.91,91.75a11.79,11.79,0,0,1,23.57,0v.93c5.43-7,12.41-13.33,24.35-13.33,17.83,0,28.22,11.78,28.22,30.85v43a11.79,11.79,0,1,1-23.57,0v-35.5c0-11.17-5.28-16.91-14.27-16.91s-14.73,5.74-14.73,16.91v35.5a11.79,11.79,0,1,1-23.57,0Z"/><path class="cls-1" d="M502.67,156.1a9.39,9.39,0,0,1-4.49-8.06A9.31,9.31,0,0,1,512.13,140c7.91,5,15.82,7.45,22.49,7.45,6.82,0,9.92-2.48,9.92-6.21v-.31c0-5.11-8.06-6.82-17.21-9.61-11.63-3.41-24.81-8.84-24.81-25V106c0-16.91,13.64-26.36,30.39-26.36A58.45,58.45,0,0,1,558.65,86a9.61,9.61,0,0,1,5.58,8.84,9.26,9.26,0,0,1-9.46,9.3,8.55,8.55,0,0,1-4.34-1.08c-6.67-3.26-13-5.27-18-5.27-5.74,0-8.69,2.48-8.69,5.73v.32c0,4.65,7.91,6.82,16.9,9.92,11.63,3.88,25.12,9.46,25.12,24.65v.31c0,18.46-13.8,26.83-31.78,26.83A58,58,0,0,1,502.67,156.1Z"/><path class="cls-1" d="M572,122.92v-.31c0-23.88,19.23-43.26,45.13-43.26,25.74,0,44.81,19.07,44.81,43v.31c0,23.88-19.23,43.26-45.12,43.26C591.06,165.87,572,146.8,572,122.92Zm66.68,0v-.31c0-12.25-8.84-23-21.86-23-13.5,0-21.56,10.39-21.56,22.64v.31c0,12.25,8.84,23,21.87,23C630.6,145.56,638.66,135.17,638.66,122.92Z"/><path class="cls-1" d="M755.88,153.15a11.79,11.79,0,1,1-23.57,0v-1.08c-5.74,7.75-13.64,13.49-25.89,13.49-19.39,0-37.84-15.2-37.84-42.95v-.31c0-27.76,18.14-42.95,37.84-42.95,12.56,0,20.31,5.73,25.89,12.4V61.67a11.79,11.79,0,1,1,23.57,0ZM692.15,122.3v.31c0,13.8,9.3,23,20.31,23s20.16-9.15,20.16-23v-.31c0-13.8-9.15-23-20.16-23S692.15,108.34,692.15,122.3Z"/><path class="cls-1" d="M809.68,165.87c-25,0-43.42-17.52-43.42-42.95v-.31c0-23.73,16.91-43.26,41.09-43.26,27.76,0,40,22.79,40,40,0,6.82-4.81,11.32-11,11.32H789.68C792,141.37,799.45,147,810,147a27.2,27.2,0,0,0,16.75-5.58,8.77,8.77,0,0,1,5.73-1.86,9,9,0,0,1,9.15,9.3,9.24,9.24,0,0,1-3.1,7C831.23,162,821.78,165.87,809.68,165.87Zm15.2-49.93c-1.4-10.54-7.6-17.68-17.53-17.68-9.76,0-16.12,7-18,17.68Z"/><path class="cls-1" d="M87.62,91.64,61.19,139.92C56.78,148,58.43,158.33,64.88,163h0c6.45,4.71,15.26,2,19.67-6.06L111,108.7c4.41-8,2.76-18.4-3.69-23.11h0C100.83,80.87,92,83.59,87.62,91.64Z"/><path class="cls-1" d="M114.65,91.64l26.43,48.28c4.41,8.06,2.75,18.41-3.7,23.12h0c-6.45,4.71-15.25,2-19.66-6.06L91.29,108.7c-4.41-8-2.75-18.4,3.7-23.11h0C101.44,80.87,110.24,83.59,114.65,91.64Z"/><path class="cls-1" d="M106,48.45l-10.12.17A14.33,14.33,0,0,0,81.74,63h0A14.33,14.33,0,0,0,96.32,77.29l10.11-.17a14.33,14.33,0,0,0,14.1-14.33h0A14.34,14.34,0,0,0,106,48.45Z"/></svg>