<svg id="Layer_1" data-name="Layer 1" xmlns="http://www.w3.org/2000/svg" viewBox="0 0 559.44 561.6"><defs><style>.cls-1{fill:#dab568;}</style></defs><path class="cls-1" d="M279.2,545.9c-146.1,0-265-118.86-265-265S133.1,16,279.2,16s265,118.86,265,265S425.3,545.9,279.2,545.9Zm0-510.15C144,35.75,34,145.74,34,280.94S144,526.13,279.2,526.13s245.19-110,245.19-245.19S414.4,35.75,279.2,35.75Z"/><path class="cls-1" d="M246.31,247.14,182,364.64c-10.73,19.6-6.71,44.79,9,56.26h0c15.69,11.46,37.12,4.86,47.85-14.75l64.32-117.49c10.73-19.61,6.71-44.8-9-56.27h0C278.46,220.93,257,227.53,246.31,247.14Z"/><path class="cls-1" d="M312.1,247.14l64.31,117.5c10.74,19.6,6.71,44.79-9,56.26h0c-15.7,11.46-37.13,4.86-47.86-14.75L255.26,288.66c-10.74-19.61-6.71-44.8,9-56.27h0C279.94,220.93,301.36,227.53,312.1,247.14Z"/><path class="cls-1" d="M290.92,142l-24.61.42A34.89,34.89,0,0,0,232,177.32h0a34.89,34.89,0,0,0,35.48,34.89l24.62-.41a34.9,34.9,0,0,0,34.31-34.9h0A34.9,34.9,0,0,0,290.92,142Z"/></svg>