<svg id="Layer_1" data-name="Layer 1" xmlns="http://www.w3.org/2000/svg" viewBox="0 0 500.04 508.32"><defs><style>.cls-1{fill:#dab568;}</style></defs><path class="cls-1" d="M249.32,16.63c-132,0-239.11,107.06-239.11,239.11S117.27,494.85,249.32,494.85,488.43,387.79,488.43,255.74,381.37,16.63,249.32,16.63ZM204.88,155.07a32.86,32.86,0,0,1,32.3-32.85l23.17-.39a32.86,32.86,0,0,1,33.41,32.85h0a32.85,32.85,0,0,1-32.3,32.84l-23.17.39a32.85,32.85,0,0,1-33.41-32.84ZM332.37,384.35c-14.78,10.8-34.95,4.58-45.05-13.87l-38-69.43-38,69.43c-10.1,18.45-30.27,24.67-45,13.87s-18.56-34.5-8.46-53l60.54-110.6c7.13-13,19.26-19.91,31-19.07,11.71-.84,23.84,6.05,31,19.07l60.54,110.6C350.93,349.85,347.14,373.56,332.37,384.35Z"/></svg>