<svg width="560" height="540" viewBox="0 0 560 540" fill="none" xmlns="http://www.w3.org/2000/svg">
<path d="M317.843 155.016L237.295 156.392C207.334 156.891 178.769 169.155 157.761 190.54C136.754 211.925 124.987 240.716 125 270.704C124.998 285.876 128.014 300.896 133.873 314.888C139.733 328.881 148.317 341.565 159.126 352.203C169.936 362.84 182.753 371.218 196.831 376.846C210.91 382.474 225.967 385.24 241.125 384.984L321.705 383.641C351.664 383.134 380.224 370.867 401.229 349.484C422.235 328.101 434.004 299.314 434 269.329C434.002 254.153 430.985 239.129 425.124 225.132C419.263 211.136 410.676 198.447 399.864 187.807C389.052 177.166 376.231 168.787 362.148 163.157C348.066 157.527 333.005 154.76 317.843 155.016Z" fill="#DAB568"/>
</svg>
